<svg id="eSnegB3J4bU1" xmlns="http://www.w3.org/2000/svg" xmlns:xlink="http://www.w3.org/1999/xlink" viewBox="0 0 300 300" shape-rendering="geometricPrecision" text-rendering="geometricPrecision"><defs><filter id="eSnegB3J4bU4-filter" x="-150%" width="400%" y="-150%" height="400%"><feGaussianBlur id="eSnegB3J4bU4-filter-drop-shadow-0-blur" in="SourceAlpha" stdDeviation="4,8"/><feOffset id="eSnegB3J4bU4-filter-drop-shadow-0-offset" dx="0" dy="0" result="tmp"/><feFlood id="eSnegB3J4bU4-filter-drop-shadow-0-flood" flood-color="#000"/><feComposite id="eSnegB3J4bU4-filter-drop-shadow-0-composite" operator="in" in2="tmp"/><feMerge id="eSnegB3J4bU4-filter-drop-shadow-0-merge" result="result"><feMergeNode id="eSnegB3J4bU4-filter-drop-shadow-0-merge-node-1"/><feMergeNode id="eSnegB3J4bU4-filter-drop-shadow-0-merge-node-2" in="SourceGraphic"/></feMerge></filter></defs><g transform="matrix(.968088 0 0 1 5.646429-1.998086)"><g transform="matrix(.462516 0 0 0.447135 77.921102 46.423512)"><ellipse rx="96.16702" ry="94.120913" transform="matrix(2.148881 0 0 2.16511 160.108727 183.518228)" filter="url(#eSnegB3J4bU4-filter)" fill="#fff" stroke="#fff"/><path d="M262.3,172.56c0-21.97-15.6-40.66-37.39-47.57-5.84-1.87-12.13-2.89-18.69-2.89h-56.06v130.85h-112.17v37.39h168.23c6.56,0,12.85-1.02,18.69-2.89c21.79-6.91,37.39-25.6,37.39-47.59c0-12.93-5.39-24.73-14.27-33.65c8.88-8.92,14.27-20.72,14.27-33.65Zm-56.08,84.13h-18.7v-33.65h18.7c10.34,0,18.69,7.53,18.69,16.82s-8.35,16.83-18.69,16.83Zm0-67.3h-18.7v-33.66h18.7c10.34,0,18.69,7.54,18.69,16.83c0,9.31-8.35,16.83-18.69,16.83Z" transform="matrix(.992031 0 0 0.981863 3.603624 20.068868)" fill="#8ac6dd"/><polygon points="299.69,103.41 224.91,103.41 150.16,56.67 75.38,103.41 75.38,234.25 37.99,234.25 37.99,103.41 0.6,103.41 66.12,62.46 66.12,9.94 103.51,9.94 103.51,39.1 112.77,33.31 150.16,9.94 187.54,33.31" transform="translate(5.695881 17.859341)" fill="#575756"/></g></g></svg>
