<?xml version="1.0" encoding="utf-8"?>
<!-- Generator: Adobe Illustrator 26.0.1, SVG Export Plug-In . SVG Version: 6.00 Build 0)  -->
<svg version="1.1" id="Layer_1" xmlns="http://www.w3.org/2000/svg" xmlns:xlink="http://www.w3.org/1999/xlink" x="0px" y="0px"
	 viewBox="0 0 300 150" style="enable-background:new 0 0 300 150;" xml:space="preserve">
<style type="text/css">
	.st0{fill:#8AC6DD;}
	.st1{fill:#F0F0F0;}
	.st2{fill:none;}
</style>
<g id="XMLID_00000017509952875827388140000010793343377287985339_">
	<path class="st0" d="M159.9,110.3c0-3.2-2.6-5.8-5.8-5.8c-3.2,0-5.8,2.6-5.8,5.8c0,3.2,2.6,5.8,5.8,5.8
		C157.3,116.2,159.9,113.6,159.9,110.3z M171.6,110.3c0,9.7-7.8,17.5-17.5,17.5s-17.5-7.8-17.5-17.5c0-9.6,7.8-17.5,17.5-17.5
		S171.6,100.7,171.6,110.3z"/>
	<path class="st1" d="M262.5,110.3v17.5h-11.7v-17.5c0-3.2-2.6-5.8-5.8-5.8s-5.8,2.6-5.8,5.8v17.5h-11.6v-35h11.6v1
		c1.8-0.7,3.8-1,5.8-1c7.6,0,14.1,4.9,16.5,11.7C262.1,106.3,262.5,108.3,262.5,110.3z"/>
	<path class="st0" d="M135.1,110.3c0,9.7-7.8,17.5-17.5,17.5c-9.7,0-17.5-7.8-17.5-17.5c0-9.6,7.8-17.5,17.5-17.5
		C127.2,92.8,135.1,100.7,135.1,110.3z M117.6,116.2c3.2,0,5.8-2.6,5.8-5.8c0-3.2-2.6-5.8-5.8-5.8c-3.2,0-5.8,2.6-5.8,5.8
		C111.8,113.6,114.4,116.2,117.6,116.2z"/>
	<rect x="173.7" y="69.5" class="st0" width="11.6" height="58.3"/>
	<polygon class="st1" points="111.6,58.1 83.7,58.1 55.8,40.6 39.1,51.1 27.9,58.1 27.9,106.9 13.9,106.9 13.9,58.1 0,58.1 
		24.4,42.8 24.4,23.2 38.4,23.2 38.4,34.1 41.8,31.9 55.8,23.2 69.8,31.9 	"/>
	<path class="st0" d="M97.6,83.9c0-8.2-5.8-15.2-13.9-17.7c-2.2-0.7-4.5-1.1-7-1.1H55.8v48.8H13.9v13.9h62.8c2.4,0,4.8-0.4,7-1.1
		c8.1-2.6,13.9-9.6,13.9-17.8c0-4.8-2-9.2-5.3-12.5C95.6,93.1,97.6,88.7,97.6,83.9z M76.7,115.2h-7v-12.6h7c3.9,0,7,2.8,7,6.3
		C83.7,112.4,80.6,115.2,76.7,115.2z M76.7,90.1h-7V77.6h7c3.9,0,7,2.8,7,6.3S80.6,90.1,76.7,90.1z"/>
</g>
<g id="XMLID_00000088102252920181967220000011117039091271046556_">
	<g>
		<path class="st1" d="M300,87c0-7.6-4.7-14.1-11.4-16.5c-1.8-0.7-3.7-1-5.7-1h-17v58.2h17c2,0,3.9-0.3,5.7-1
			c6.6-2.4,11.4-8.9,11.4-16.5c0-4.5-1.6-8.6-4.3-11.6C298.4,95.6,300,91.5,300,87z M283,116.1h-5.7v-11.6h5.7
			c3.1,0,5.7,2.6,5.7,5.8S286.1,116.1,283,116.1z M283,92.8h-5.7V81.2h5.7c3.1,0,5.7,2.6,5.7,5.8S286.1,92.8,283,92.8z"/>
	</g>
	<g>
		<path class="st2" d="M285.8,126.8v1h-5.7C282.1,127.8,284,127.4,285.8,126.8z"/>
		<ellipse class="st2" cx="280.1" cy="110.3" rx="5.7" ry="5.8"/>
		<path class="st2" d="M285.8,110.3c0,3.2-2.5,5.8-5.7,5.8h-5.7v-11.6h5.7C283.3,104.5,285.8,107.1,285.8,110.3z"/>
		<path class="st2" d="M285.8,69.6v1c-1.8-0.7-3.7-1-5.7-1H285.8z"/>
		<ellipse class="st2" cx="280.1" cy="87" rx="5.7" ry="5.8"/>
		<path class="st2" d="M285.8,87c0,3.2-2.5,5.8-5.7,5.8h-5.7V81.2h5.7C283.3,81.2,285.8,83.8,285.8,87z"/>
	</g>
</g>
<g id="XMLID_00000067950672583931746270000013410813844385826475_">
	<g>
		<path class="st1" d="M224,87c0-7.6-4.7-14.1-11.4-16.5c-1.8-0.7-3.7-1-5.7-1h-17v58.2h17c2,0,3.9-0.3,5.7-1
			c6.6-2.4,11.4-8.9,11.4-16.5c0-4.5-1.6-8.6-4.3-11.6C222.4,95.6,224,91.5,224,87z M207,116.1h-5.7v-11.6h5.7
			c3.1,0,5.7,2.6,5.7,5.8S210.1,116.1,207,116.1z M207,92.8h-5.7V81.2h5.7c3.1,0,5.7,2.6,5.7,5.8S210.1,92.8,207,92.8z"/>
	</g>
	<g>
		<path class="st2" d="M210.9,126.8v1h-5.7C207.2,127.8,209.1,127.4,210.9,126.8z"/>
		<ellipse class="st2" cx="205.2" cy="110.3" rx="5.7" ry="5.8"/>
		<path class="st2" d="M210.9,110.3c0,3.2-2.5,5.8-5.7,5.8h-5.7v-11.6h5.7C208.3,104.5,210.9,107.1,210.9,110.3z"/>
		<path class="st2" d="M210.9,69.6v1c-1.8-0.7-3.7-1-5.7-1H210.9z"/>
		<ellipse class="st2" cx="205.2" cy="87" rx="5.7" ry="5.8"/>
		<path class="st2" d="M210.9,87c0,3.2-2.5,5.8-5.7,5.8h-5.7V81.2h5.7C208.3,81.2,210.9,83.8,210.9,87z"/>
	</g>
</g>
</svg>
