<?xml version="1.0" encoding="utf-8"?>
<!-- Generator: Adobe Illustrator 26.0.1, SVG Export Plug-In . SVG Version: 6.00 Build 0)  -->
<svg version="1.1" id="Layer_1" xmlns="http://www.w3.org/2000/svg" xmlns:xlink="http://www.w3.org/1999/xlink" x="0px" y="0px"
	 viewBox="0 0 300 150" style="enable-background:new 0 0 300 150;" xml:space="preserve">
<style type="text/css">
	.st0{fill:#8AC6DD;}
	.st1{fill:#575756;}
	.st2{fill:none;}
</style>
<g id="XMLID_00000017509952875827388140000010793343377287985339_">
	<path class="st0" d="M159.95,110.32c0-3.21-2.61-5.83-5.83-5.83c-3.21,0-5.83,2.61-5.83,5.83c0,3.23,2.61,5.83,5.83,5.83
		C157.33,116.15,159.95,113.55,159.95,110.32z M171.6,110.32c0,9.66-7.82,17.48-17.48,17.48s-17.48-7.82-17.48-17.48
		c0-9.64,7.82-17.47,17.48-17.47S171.6,100.68,171.6,110.32z"/>
	<path class="st1" d="M262.46,110.32v17.48h-11.66v-17.48c0-3.22-2.6-5.82-5.82-5.82c-3.22,0-5.82,2.6-5.82,5.82v17.48h-11.65V92.85
		h11.65v1c1.82-0.65,3.78-1,5.82-1c7.61,0,14.09,4.87,16.47,11.65C262.11,106.31,262.46,108.27,262.46,110.32z"/>
	<path class="st0" d="M135.07,110.32c0,9.66-7.82,17.48-17.47,17.48c-9.66,0-17.48-7.82-17.48-17.48c0-9.64,7.82-17.47,17.48-17.47
		C127.25,92.85,135.07,100.68,135.07,110.32z M117.61,116.15c3.21,0,5.81-2.6,5.81-5.83c0-3.21-2.6-5.83-5.81-5.83
		c-3.23,0-5.83,2.61-5.83,5.83C111.78,113.55,114.38,116.15,117.61,116.15z"/>
	<rect x="173.74" y="69.54" class="st0" width="11.65" height="58.26"/>
	<polygon class="st1" points="111.57,58.07 83.68,58.07 55.79,40.63 39.1,51.06 27.89,58.07 27.89,106.88 13.95,106.88 13.95,58.07 
		0,58.07 24.44,42.8 24.44,23.2 38.39,23.2 38.39,34.08 41.85,31.92 55.79,23.2 69.75,31.92 	"/>
	<path class="st0" d="M97.61,83.86c0-8.19-5.81-15.16-13.94-17.74c-2.18-0.71-4.53-1.08-6.98-1.08H55.79v48.8H13.94v13.95H76.7
		c2.45,0,4.8-0.38,6.98-1.08c8.12-2.58,13.94-9.55,13.94-17.76c0-4.82-2.01-9.22-5.32-12.54C95.6,93.09,97.61,88.69,97.61,83.86z
		 M76.7,115.24h-6.97v-12.55h6.97c3.86,0,6.98,2.81,6.98,6.27C83.68,112.43,80.56,115.24,76.7,115.24z M76.7,90.14h-6.97V77.58h6.97
		c3.86,0,6.98,2.81,6.98,6.28C83.68,87.33,80.56,90.14,76.7,90.14z"/>
</g>
<g id="XMLID_00000088102252920181967220000011117039091271046556_">
	<g>
		<path class="st1" d="M300,87.03c0-7.6-4.73-14.07-11.35-16.46c-1.77-0.65-3.68-1-5.68-1h-17.03v58.19h17.03
			c1.99,0,3.91-0.35,5.68-1c6.62-2.39,11.35-8.86,11.35-16.46c0-4.47-1.64-8.55-4.33-11.64C298.36,95.58,300,91.51,300,87.03z
			 M282.97,116.13h-5.68v-11.64h5.68c3.14,0,5.68,2.6,5.68,5.82C288.65,113.53,286.11,116.13,282.97,116.13z M282.97,92.85h-5.68
			V81.21h5.68c3.14,0,5.68,2.6,5.68,5.82S286.11,92.85,282.97,92.85z"/>
	</g>
	<g>
		<path class="st2" d="M285.81,126.77v1h-5.68C282.13,127.77,284.04,127.42,285.81,126.77z"/>
		<ellipse class="st2" cx="280.13" cy="110.31" rx="5.68" ry="5.82"/>
		<path class="st2" d="M285.81,110.31c0,3.22-2.54,5.82-5.68,5.82h-5.68v-11.64h5.68C283.27,104.49,285.81,107.09,285.81,110.31z"/>
		<path class="st2" d="M285.81,69.58v1c-1.77-0.65-3.68-1-5.68-1H285.81z"/>
		<ellipse class="st2" cx="280.13" cy="87.03" rx="5.68" ry="5.82"/>
		<path class="st2" d="M285.81,87.03c0,3.22-2.54,5.82-5.68,5.82h-5.68V81.21h5.68C283.27,81.21,285.81,83.81,285.81,87.03z"/>
	</g>
</g>
<g id="XMLID_00000067950672583931746270000013410813844385826475_">
	<g>
		<path class="st1" d="M224.03,87.03c0-7.6-4.73-14.07-11.35-16.46c-1.77-0.65-3.68-1-5.68-1h-17.03v58.19H207
			c1.99,0,3.91-0.35,5.68-1c6.62-2.39,11.35-8.86,11.35-16.46c0-4.47-1.64-8.55-4.33-11.64C222.39,95.58,224.03,91.51,224.03,87.03z
			 M207,116.13h-5.68v-11.64H207c3.14,0,5.68,2.6,5.68,5.82C212.68,113.53,210.15,116.13,207,116.13z M207,92.85h-5.68V81.21H207
			c3.14,0,5.68,2.6,5.68,5.82S210.15,92.85,207,92.85z"/>
	</g>
	<g>
		<path class="st2" d="M210.88,126.77v1h-5.68C207.2,127.77,209.11,127.42,210.88,126.77z"/>
		<ellipse class="st2" cx="205.2" cy="110.31" rx="5.68" ry="5.82"/>
		<path class="st2" d="M210.88,110.31c0,3.22-2.54,5.82-5.68,5.82h-5.68v-11.64h5.68C208.34,104.49,210.88,107.09,210.88,110.31z"/>
		<path class="st2" d="M210.88,69.58v1c-1.77-0.65-3.68-1-5.68-1H210.88z"/>
		<ellipse class="st2" cx="205.2" cy="87.03" rx="5.68" ry="5.82"/>
		<path class="st2" d="M210.88,87.03c0,3.22-2.54,5.82-5.68,5.82h-5.68V81.21h5.68C208.34,81.21,210.88,83.81,210.88,87.03z"/>
	</g>
</g>
</svg>
